<svg width="149" height="28" viewBox="0 0 149 28" fill="none" xmlns="http://www.w3.org/2000/svg">
<path d="M4.52004 3.03C5.10004 1.29 6.02004 0.419999 7.28004 0.419999C8.28004 0.419999 8.98004 1.02 9.38004 2.22C9.74004 3.28 10.21 5.88 10.79 10.02C11.41 9.94 11.76 9.9 11.84 9.9C12.44 9.9 12.74 10.2 12.74 10.8C12.74 11.04 12.65 11.24 12.47 11.4C12.29 11.56 12.08 11.66 11.84 11.7L11.06 11.79C11.26 13.45 11.36 14.69 11.36 15.51C11.36 16.33 11.15 16.95 10.73 17.37C10.31 17.79 9.82004 18 9.26004 18C8.72004 18 8.20004 17.77 7.70004 17.31C7.22004 16.85 6.84004 16.32 6.56004 15.72C5.96004 14.42 5.66004 13.45 5.66004 12.81C5.66004 11.59 6.77004 10.75 8.99004 10.29C8.37004 6.05 7.96004 3.65 7.76004 3.09C7.58004 2.51 7.42004 2.22 7.28004 2.22C6.88004 2.22 6.53004 2.67 6.23004 3.57C5.31004 6.33 4.70004 8.31 4.40004 9.51C4.10004 10.71 3.78004 12.02 3.44004 13.44C3.10004 14.86 2.84004 15.91 2.66004 16.59C2.50004 17.25 2.35004 17.65 2.21004 17.79C2.09004 17.93 1.90004 18 1.64004 18C1.04004 18 0.740039 17.7 0.740039 17.1L0.800039 16.74C1.06004 15.7 1.36004 14.47 1.70004 13.05C2.06004 11.63 2.32004 10.58 2.48004 9.9C2.96004 8.02 3.64004 5.73 4.52004 3.03ZM9.26004 12.09C8.06004 12.35 7.46004 12.64 7.46004 12.96C7.46004 13.32 7.69004 13.95 8.15004 14.85C8.63004 15.75 9.00004 16.2 9.26004 16.2C9.46004 16.2 9.56004 15.87 9.56004 15.21C9.56004 14.53 9.46004 13.49 9.26004 12.09ZM32.9141 17.16C31.8341 17.52 30.9941 17.7 30.3941 17.7C29.7941 17.7 29.3241 17.48 28.9841 17.04C28.6441 16.6 28.3341 15.85 28.0541 14.79C27.7941 13.73 27.5941 13.2 27.4541 13.2C26.9341 13.2 26.3841 14 25.8041 15.6C25.5841 16.2 25.2241 16.75 24.7241 17.25C24.2241 17.75 23.5941 18 22.8341 18C22.0941 18 21.5141 17.67 21.0941 17.01C20.6741 16.35 20.4241 15.63 20.3441 14.85C20.2841 14.07 20.1841 13.35 20.0441 12.69C19.9041 12.03 19.6741 11.7 19.3541 11.7C19.1341 11.7 18.9741 11.76 18.8741 11.88C18.7741 12 18.6841 12.12 18.6041 12.24C18.5441 12.34 18.4741 12.45 18.3941 12.57C18.3341 12.67 18.2541 12.81 18.1541 12.99C18.0741 13.17 17.9741 13.36 17.8541 13.56C17.4541 14.26 17.1341 14.78 16.8941 15.12C16.4141 15.88 15.7041 16.46 14.7641 16.86C14.4041 17.02 14.1141 17.1 13.8941 17.1C13.2941 17.1 12.9941 16.8 12.9941 16.2C12.9941 15.82 13.3141 15.51 13.9541 15.27C14.5941 15.03 15.0441 14.69 15.3041 14.25C15.5841 13.79 15.8941 13.27 16.2341 12.69C16.5741 12.11 16.8041 11.72 16.9241 11.52C17.0641 11.32 17.2341 11.08 17.4341 10.8C17.6341 10.5 17.8141 10.31 17.9741 10.23C18.3941 10.01 18.8541 9.9 19.3541 9.9C20.1741 9.9 20.7941 10.23 21.2141 10.89C21.6341 11.55 21.8741 12.27 21.9341 13.05C22.0141 13.83 22.1241 14.55 22.2641 15.21C22.4041 15.87 22.6341 16.2 22.9541 16.2C23.2741 16.2 23.5741 15.95 23.8541 15.45C24.1541 14.95 24.4141 14.4 24.6341 13.8C24.8541 13.2 25.2041 12.65 25.6841 12.15C26.1841 11.65 26.7741 11.4 27.4541 11.4C27.9741 11.4 28.3541 11.53 28.5941 11.79C28.8341 12.03 29.0041 12.22 29.1041 12.36C29.2241 12.5 29.3241 12.71 29.4041 12.99C29.5041 13.27 29.5741 13.48 29.6141 13.62C29.6541 13.74 29.7141 13.96 29.7941 14.28C30.0341 15.38 30.2541 15.92 30.4541 15.9C30.8341 15.9 31.3241 15.8 31.9241 15.6C32.5241 15.4 32.8541 15.3 32.9141 15.3C33.5141 15.3 33.8141 15.6 33.8141 16.2C33.8141 16.64 33.5141 16.96 32.9141 17.16ZM51.8106 17.16C50.7306 17.52 49.8906 17.7 49.2906 17.7C48.6906 17.7 48.2206 17.48 47.8806 17.04C47.5406 16.6 47.2306 15.85 46.9506 14.79C46.6906 13.73 46.4906 13.2 46.3506 13.2C45.8306 13.2 45.2806 14 44.7006 15.6C44.4806 16.2 44.1206 16.75 43.6206 17.25C43.1206 17.75 42.4906 18 41.7306 18C40.9906 18 40.4106 17.67 39.9906 17.01C39.5706 16.35 39.3206 15.63 39.2406 14.85C39.1806 14.07 39.0806 13.35 38.9406 12.69C38.8006 12.03 38.5706 11.7 38.2506 11.7C38.0306 11.7 37.8706 11.76 37.7706 11.88C37.6706 12 37.5806 12.12 37.5006 12.24C37.4406 12.34 37.3706 12.45 37.2906 12.57C37.2306 12.67 37.1506 12.81 37.0506 12.99C36.9706 13.17 36.8706 13.36 36.7506 13.56C36.3506 14.26 36.0306 14.78 35.7906 15.12C35.3106 15.88 34.6006 16.46 33.6606 16.86C33.3006 17.02 33.0106 17.1 32.7906 17.1C32.1906 17.1 31.8906 16.8 31.8906 16.2C31.8906 15.82 32.2106 15.51 32.8506 15.27C33.4906 15.03 33.9406 14.69 34.2006 14.25C34.4806 13.79 34.7906 13.27 35.1306 12.69C35.4706 12.11 35.7006 11.72 35.8206 11.52C35.9606 11.32 36.1306 11.08 36.3306 10.8C36.5306 10.5 36.7106 10.31 36.8706 10.23C37.2906 10.01 37.7506 9.9 38.2506 9.9C39.0706 9.9 39.6906 10.23 40.1106 10.89C40.5306 11.55 40.7706 12.27 40.8306 13.05C40.9106 13.83 41.0206 14.55 41.1606 15.21C41.3006 15.87 41.5306 16.2 41.8506 16.2C42.1706 16.2 42.4706 15.95 42.7506 15.45C43.0506 14.95 43.3106 14.4 43.5306 13.8C43.7506 13.2 44.1006 12.65 44.5806 12.15C45.0806 11.65 45.6706 11.4 46.3506 11.4C46.8706 11.4 47.2506 11.53 47.4906 11.79C47.7306 12.03 47.9006 12.22 48.0006 12.36C48.1206 12.5 48.2206 12.71 48.3006 12.99C48.4006 13.27 48.4706 13.48 48.5106 13.62C48.5506 13.74 48.6106 13.96 48.6906 14.28C48.9306 15.38 49.1506 15.92 49.3506 15.9C49.7306 15.9 50.2206 15.8 50.8206 15.6C51.4206 15.4 51.7506 15.3 51.8106 15.3C52.4106 15.3 52.7106 15.6 52.7106 16.2C52.7106 16.64 52.4106 16.96 51.8106 17.16ZM65.0371 13.26C64.4571 14.46 63.9171 15.18 63.4171 15.42C63.1571 15.54 62.8671 15.6 62.5471 15.6C61.3471 15.6 60.5671 14.83 60.2071 13.29C59.8271 13.97 59.2371 14.68 58.4371 15.42C57.6571 16.14 56.8271 16.5 55.9471 16.5C55.0871 16.5 54.3671 16.22 53.7871 15.66C53.2271 15.08 52.9471 14.36 52.9471 13.5C52.9471 11.62 53.4771 10.1 54.5371 8.94C55.6171 7.78 56.6371 7.2 57.5971 7.2C58.5771 7.2 59.2971 7.36 59.7571 7.68C60.2171 8 60.4471 8.34 60.4471 8.7C60.4471 9.3 60.1471 9.6 59.5471 9.6C59.4271 9.6 59.2371 9.5 58.9771 9.3C58.7171 9.1 58.3071 9 57.7471 9C57.2071 9 56.5671 9.39 55.8271 10.17C55.1071 10.95 54.7471 12.06 54.7471 13.5C54.7471 13.86 54.8571 14.15 55.0771 14.37C55.2971 14.59 55.5971 14.7 55.9771 14.7C56.3571 14.7 56.8371 14.43 57.4171 13.89C57.9971 13.33 58.3671 12.91 58.5271 12.63C58.6871 12.33 58.8271 12.08 58.9471 11.88C59.0671 11.66 59.1571 11.5 59.2171 11.4L59.4271 11.04C59.6871 10.6 59.8671 10.36 59.9671 10.32C60.0671 10.26 60.1471 10.23 60.2071 10.23C60.6071 10.23 60.9371 10.42 61.1971 10.8C61.4571 11.16 61.6271 11.56 61.7071 12C61.9471 13.18 62.2271 13.78 62.5471 13.8C62.7271 13.8 62.9471 13.51 63.2071 12.93C63.4871 12.35 63.8071 11.72 64.1671 11.04C64.6671 10.08 65.1971 9.6 65.7571 9.6C66.3171 9.6 66.6471 9.9 66.7471 10.5C66.8271 10.98 66.8671 11.59 66.8671 12.33C66.8671 13.07 66.7971 14.38 66.6571 16.26C67.6571 13.62 68.7871 11.45 70.0471 9.75C71.3071 8.05 72.6071 7.2 73.9471 7.2C75.5071 7.2 76.7971 7.71 77.8171 8.73C78.8371 9.73 79.3471 11.22 79.3471 13.2C79.3471 14.4 78.9571 15.5 78.1771 16.5C77.4171 17.5 76.4071 18 75.1471 18C74.2671 18 73.5471 17.75 72.9871 17.25C72.4271 16.75 72.1471 16.15 72.1471 15.45C72.1471 14.75 72.3571 14.15 72.7771 13.65C73.2171 13.15 73.6071 12.9 73.9471 12.9C74.5471 12.9 74.8471 13.2 74.8471 13.8C74.8471 14 74.6971 14.25 74.3971 14.55C74.0971 14.85 73.9471 15.1 73.9471 15.3C73.9471 15.9 74.3271 16.2 75.0871 16.2C75.8671 16.2 76.4671 15.88 76.8871 15.24C77.3271 14.58 77.5471 13.9 77.5471 13.2C77.5471 11.84 77.2371 10.8 76.6171 10.08C75.9971 9.36 75.1071 9 73.9471 9C73.0471 9 72.0171 9.89 70.8571 11.67C69.7171 13.43 68.6971 15.69 67.7971 18.45C66.8971 21.21 66.3471 23.88 66.1471 26.46C66.0871 27.06 65.7871 27.36 65.2471 27.36C64.6471 27.36 64.3471 27.06 64.3471 26.46C64.3471 24.54 64.4571 21.92 64.6771 18.6C64.9171 15.28 65.0371 13.5 65.0371 13.26ZM94.3459 9.6C95.4459 9.6 96.1759 10.5 96.5359 12.3C97.0559 14.9 97.5259 16.2 97.9459 16.2C98.4459 16.2 98.8659 15.88 99.2059 15.24C99.7659 14.16 100.046 12.78 100.046 11.1C100.046 10.3 100.296 9.65 100.796 9.15C101.296 8.65 102.036 8.4 103.016 8.4C104.016 8.4 105.206 8.6 106.586 9C107.966 9.4 108.766 10.02 108.986 10.86C109.446 12.7 109.886 14 110.306 14.76C110.726 15.52 111.226 15.9 111.806 15.9C112.146 15.9 112.616 15.8 113.216 15.6C113.816 15.4 114.146 15.3 114.206 15.3C114.806 15.3 115.106 15.6 115.106 16.2C115.106 16.64 114.806 16.96 114.206 17.16C113.126 17.52 112.326 17.7 111.806 17.7C110.606 17.7 109.676 17.17 109.016 16.11C108.356 15.05 107.766 13.48 107.246 11.4C107.166 11.12 106.606 10.85 105.566 10.59C104.546 10.33 103.606 10.2 102.746 10.2C102.146 10.2 101.846 10.5 101.846 11.1C101.846 12.72 101.576 14.22 101.036 15.6C100.756 16.32 100.346 16.9 99.8059 17.34C99.2859 17.78 98.7159 18 98.0959 18C97.4959 18 97.0159 17.86 96.6559 17.58C96.2959 17.3 95.9959 16.86 95.7559 16.26C95.3959 15.4 95.0959 14.38 94.8559 13.2C94.6159 12 94.4359 11.4 94.3159 11.4C94.2159 11.4 94.0059 11.7 93.6859 12.3C93.3659 12.88 93.0059 13.53 92.6059 14.25C92.2059 14.97 91.6159 15.63 90.8359 16.23C90.0759 16.81 89.2559 17.1 88.3759 17.1C87.5159 17.1 86.7859 16.83 86.1859 16.29C85.1259 15.33 84.5959 14.1 84.5959 12.6C83.3759 15.02 82.2959 16.44 81.3559 16.86C80.9959 17.02 80.7059 17.1 80.4859 17.1C79.8859 17.1 79.5859 16.8 79.5859 16.2C79.5859 15.82 79.9059 15.51 80.5459 15.27C81.1659 15.01 82.3059 13.21 83.9659 9.87C84.2459 9.29 84.7059 9 85.3459 9C85.6259 9 85.8459 9.09 86.0059 9.27C86.1659 9.43 86.2459 9.64 86.2459 9.9C86.2459 11.92 86.4259 13.33 86.7859 14.13C87.1659 14.91 87.6859 15.3 88.3459 15.3C89.5459 15.3 90.6459 14.3 91.6459 12.3C92.2259 11.12 92.7059 10.38 93.0859 10.08C93.4659 9.76 93.8859 9.6 94.3459 9.6ZM133.109 17.16C132.029 17.52 131.189 17.7 130.589 17.7C129.989 17.7 129.519 17.48 129.179 17.04C128.839 16.6 128.529 15.85 128.249 14.79C127.989 13.73 127.789 13.2 127.649 13.2C127.129 13.2 126.579 14 125.999 15.6C125.779 16.2 125.419 16.75 124.919 17.25C124.419 17.75 123.789 18 123.029 18C122.289 18 121.709 17.67 121.289 17.01C120.869 16.35 120.619 15.63 120.539 14.85C120.479 14.07 120.379 13.35 120.239 12.69C120.099 12.03 119.869 11.7 119.549 11.7C119.329 11.7 119.169 11.76 119.069 11.88C118.969 12 118.879 12.12 118.799 12.24C118.739 12.34 118.669 12.45 118.589 12.57C118.529 12.67 118.449 12.81 118.349 12.99C118.269 13.17 118.169 13.36 118.049 13.56C117.649 14.26 117.329 14.78 117.089 15.12C116.609 15.88 115.899 16.46 114.959 16.86C114.599 17.02 114.309 17.1 114.089 17.1C113.489 17.1 113.189 16.8 113.189 16.2C113.189 15.82 113.509 15.51 114.149 15.27C114.789 15.03 115.239 14.69 115.499 14.25C115.779 13.79 116.089 13.27 116.429 12.69C116.769 12.11 116.999 11.72 117.119 11.52C117.259 11.32 117.429 11.08 117.629 10.8C117.829 10.5 118.009 10.31 118.169 10.23C118.589 10.01 119.049 9.9 119.549 9.9C120.369 9.9 120.989 10.23 121.409 10.89C121.829 11.55 122.069 12.27 122.129 13.05C122.209 13.83 122.319 14.55 122.459 15.21C122.599 15.87 122.829 16.2 123.149 16.2C123.469 16.2 123.769 15.95 124.049 15.45C124.349 14.95 124.609 14.4 124.829 13.8C125.049 13.2 125.399 12.65 125.879 12.15C126.379 11.65 126.969 11.4 127.649 11.4C128.169 11.4 128.549 11.53 128.789 11.79C129.029 12.03 129.199 12.22 129.299 12.36C129.419 12.5 129.519 12.71 129.599 12.99C129.699 13.27 129.769 13.48 129.809 13.62C129.849 13.74 129.909 13.96 129.989 14.28C130.229 15.38 130.449 15.92 130.649 15.9C131.029 15.9 131.519 15.8 132.119 15.6C132.719 15.4 133.049 15.3 133.109 15.3C133.709 15.3 134.009 15.6 134.009 16.2C134.009 16.64 133.709 16.96 133.109 17.16ZM146.546 15.54C146.546 15.54 146.866 15.46 147.506 15.3C148.106 15.3 148.406 15.6 148.406 16.2C148.406 16.64 148.106 16.96 147.506 17.16C147.146 17.28 146.786 17.34 146.426 17.34C146.086 17.34 145.756 17.26 145.436 17.1C145.116 16.94 144.866 16.7 144.686 16.38C144.386 15.86 144.166 15.3 144.026 14.7L143.906 14.19C143.566 14.77 142.736 15.45 141.416 16.23C140.116 17.01 138.726 17.4 137.246 17.4C136.446 17.4 135.746 17.1 135.146 16.5C134.546 15.9 134.246 15.2 134.246 14.4C134.246 12.46 135.046 10.78 136.646 9.36C138.246 7.92 139.866 7.2 141.506 7.2C142.406 7.2 143.176 7.37 143.816 7.71C144.476 8.03 144.806 8.36 144.806 8.7C144.806 9.3 144.506 9.6 143.906 9.6C143.786 9.6 143.496 9.5 143.036 9.3C142.576 9.1 142.066 9 141.506 9C140.426 9 139.246 9.53 137.966 10.59C136.686 11.63 136.046 12.9 136.046 14.4C136.046 14.7 136.166 14.98 136.406 15.24C136.666 15.48 136.946 15.6 137.246 15.6C138.426 15.6 139.526 15.29 140.546 14.67C141.566 14.03 142.216 13.51 142.496 13.11C142.776 12.69 143.006 12.31 143.186 11.97C143.366 11.63 143.496 11.41 143.576 11.31C143.676 11.19 143.876 11.13 144.176 11.13C144.476 11.13 144.706 11.24 144.866 11.46C145.026 11.68 145.176 12.03 145.316 12.51C145.456 12.97 145.596 13.49 145.736 14.07C145.876 14.65 145.996 15.04 146.096 15.24C146.216 15.44 146.366 15.54 146.546 15.54Z" fill="black"/>
</svg>
